<svg xmlns="http://www.w3.org/2000/svg" width="234" height="63" fill="none"><path fill="#fff" d="M49.896 23.96c0 2.04-.72 3.804-2.16 5.292-1.44 1.464-3.54 2.52-6.3 3.168 1.488.408 2.616 1.08 3.384 2.016a4.772 4.772 0 0 1 1.152 3.168c0 1.896-.6 3.54-1.8 4.932-1.176 1.392-2.904 2.472-5.184 3.24-2.28.744-5.028 1.116-8.244 1.116-1.2 0-2.16-.036-2.88-.108-.024.672-.312 1.176-.864 1.512-.552.336-1.26.504-2.124.504-.864 0-1.464-.192-1.8-.576-.312-.384-.444-.948-.396-1.692.216-3.36.636-6.876 1.26-10.548.624-3.696 1.416-7.26 2.376-10.692.168-.6.504-1.02 1.008-1.26s1.164-.36 1.98-.36c1.464 0 2.196.408 2.196 1.224 0 .336-.072.72-.216 1.152-.624 1.872-1.248 4.416-1.872 7.632a90.427 90.427 0 0 0-1.332 9.144c1.152.096 2.088.144 2.808.144 3.36 0 5.82-.48 7.38-1.44 1.584-.984 2.376-2.232 2.376-3.744 0-1.056-.456-1.944-1.368-2.664-.888-.72-2.388-1.116-4.5-1.188-.48-.024-.816-.144-1.008-.36-.192-.216-.288-.564-.288-1.044 0-.696.144-1.26.432-1.692.288-.432.816-.66 1.584-.684 1.704-.048 3.24-.3 4.608-.756 1.392-.456 2.484-1.092 3.276-1.908.792-.84 1.188-1.812 1.188-2.916 0-1.392-.684-2.484-2.052-3.276-1.368-.816-3.468-1.224-6.3-1.224-2.568 0-5.052.336-7.452 1.008-2.4.648-4.44 1.476-6.12 2.484-.768.456-1.416.684-1.944.684-.432 0-.768-.144-1.008-.432-.216-.312-.324-.696-.324-1.152 0-.6.12-1.116.36-1.548.264-.432.876-.924 1.836-1.476 2.016-1.152 4.38-2.052 7.092-2.7a35.659 35.659 0 0 1 8.316-.972c4.344 0 7.584.732 9.72 2.196 2.136 1.464 3.204 3.396 3.204 5.796Zm4.27 3.888c-1.007 0-1.763-.228-2.267-.684-.504-.48-.756-1.14-.756-1.98 0-.84.324-1.536.972-2.088.672-.576 1.5-.864 2.484-.864.888 0 1.608.216 2.16.648.552.432.828 1.044.828 1.836 0 .96-.312 1.728-.936 2.304-.624.552-1.452.828-2.484.828ZM53.88 47.18c-1.56 0-2.7-.552-3.42-1.656-.696-1.104-1.044-2.568-1.044-4.392 0-1.08.132-2.46.396-4.14a40.883 40.883 0 0 1 1.08-4.752c.216-.768.504-1.296.864-1.584.36-.288.936-.432 1.728-.432 1.224 0 1.836.408 1.836 1.224 0 .6-.228 1.992-.684 4.176-.576 2.64-.864 4.428-.864 5.364 0 .72.096 1.272.288 1.656.192.384.516.576.972.576.432 0 .972-.3 1.62-.9.648-.6 1.512-1.548 2.592-2.844.288-.336.612-.504.972-.504.312 0 .552.144.72.432.192.288.288.684.288 1.188 0 .96-.228 1.704-.684 2.232-2.376 2.904-4.596 4.356-6.66 4.356Zm6.987 0c-.912 0-1.56-.48-1.944-1.44-.36-.96-.54-2.496-.54-4.608 0-3.12.444-6.084 1.332-8.892.216-.696.564-1.2 1.044-1.512.504-.336 1.2-.504 2.088-.504.48 0 .816.06 1.008.18.192.12.288.348.288.684 0 .384-.18 1.248-.54 2.592-.24.96-.432 1.8-.576 2.52-.144.72-.264 1.608-.36 2.664.792-2.064 1.68-3.744 2.664-5.04.984-1.296 1.944-2.22 2.88-2.772.96-.552 1.836-.828 2.628-.828 1.56 0 2.34.78 2.34 2.34 0 .936-.264 2.628-.792 5.076-.456 2.088-.684 3.468-.684 4.14 0 .96.348 1.44 1.044 1.44.48 0 1.044-.288 1.692-.864.672-.6 1.56-1.56 2.664-2.88.288-.336.612-.504.972-.504.312 0 .552.144.72.432.192.288.288.684.288 1.188 0 .96-.228 1.704-.684 2.232-1.032 1.272-2.148 2.316-3.348 3.132-1.176.816-2.52 1.224-4.032 1.224-1.224 0-2.148-.348-2.772-1.044-.624-.72-.936-1.752-.936-3.096 0-.672.168-1.872.504-3.6.312-1.512.468-2.556.468-3.132 0-.384-.132-.576-.396-.576-.312 0-.756.408-1.332 1.224-.552.792-1.128 1.848-1.728 3.168a25.859 25.859 0 0 0-1.404 4.176c-.264 1.128-.576 1.896-.936 2.304-.336.384-.876.576-1.62.576Zm19.731 0c-1.488 0-2.676-.54-3.564-1.62-.888-1.08-1.332-2.496-1.332-4.248 0-1.92.444-3.732 1.332-5.436.888-1.728 2.064-3.108 3.528-4.14 1.488-1.056 3.06-1.584 4.716-1.584.528 0 .876.108 1.044.324.192.192.348.552.468 1.08a8.453 8.453 0 0 1 1.584-.144c1.176 0 1.764.42 1.764 1.26 0 .504-.18 1.704-.54 3.6-.552 2.76-.828 4.68-.828 5.76 0 .36.084.648.252.864a.923.923 0 0 0 .72.324c.456 0 1.008-.288 1.656-.864.648-.6 1.524-1.56 2.628-2.88.288-.336.612-.504.972-.504.312 0 .552.144.72.432.192.288.288.684.288 1.188 0 .96-.228 1.704-.684 2.232-.984 1.224-2.028 2.256-3.132 3.096-1.104.84-2.172 1.26-3.204 1.26-.792 0-1.524-.264-2.196-.792-.648-.552-1.14-1.296-1.476-2.232-1.248 2.016-2.82 3.024-4.716 3.024Zm1.296-3.636c.528 0 1.032-.312 1.512-.936.48-.624.828-1.452 1.044-2.484l1.332-6.624c-1.008.024-1.944.408-2.808 1.152-.84.72-1.512 1.68-2.016 2.88a9.754 9.754 0 0 0-.756 3.816c0 .744.144 1.296.432 1.656.312.36.732.54 1.26.54Zm13.743 3.636c-.912 0-1.56-.48-1.944-1.44-.36-.96-.54-2.496-.54-4.608 0-3.12.444-6.084 1.332-8.892.216-.696.564-1.2 1.044-1.512.504-.336 1.2-.504 2.088-.504.48 0 .816.06 1.008.18.192.12.288.348.288.684 0 .384-.18 1.248-.54 2.592-.24.96-.432 1.8-.576 2.52-.144.72-.264 1.608-.36 2.664.792-2.064 1.68-3.744 2.664-5.04.984-1.296 1.944-2.22 2.88-2.772.96-.552 1.836-.828 2.628-.828 1.56 0 2.34.78 2.34 2.34 0 .312-.108 1.068-.324 2.268-.192.96-.288 1.56-.288 1.8 0 .84.3 1.26.9 1.26.672 0 1.536-.528 2.592-1.584.312-.312.636-.468.972-.468.312 0 .552.144.72.432.192.264.288.624.288 1.08 0 .888-.24 1.584-.72 2.088a9.992 9.992 0 0 1-2.376 1.8c-.888.48-1.836.72-2.844.72-1.272 0-2.244-.324-2.916-.972-.648-.648-.972-1.524-.972-2.628 0-.36.036-.72.108-1.08.048-.48.072-.804.072-.972 0-.384-.132-.576-.396-.576-.36 0-.84.408-1.44 1.224-.576.792-1.152 1.848-1.728 3.168a25.859 25.859 0 0 0-1.404 4.176c-.264 1.128-.576 1.896-.936 2.304-.336.384-.876.576-1.62.576Zm18.542-19.332c-1.008 0-1.764-.228-2.268-.684-.504-.48-.756-1.14-.756-1.98 0-.84.324-1.536.972-2.088.672-.576 1.5-.864 2.484-.864.888 0 1.608.216 2.16.648.552.432.828 1.044.828 1.836 0 .96-.312 1.728-.936 2.304-.624.552-1.452.828-2.484.828Zm-.288 19.332c-1.56 0-2.7-.552-3.42-1.656-.696-1.104-1.044-2.568-1.044-4.392 0-1.08.132-2.46.396-4.14a40.883 40.883 0 0 1 1.08-4.752c.216-.768.504-1.296.864-1.584.36-.288.936-.432 1.728-.432 1.224 0 1.836.408 1.836 1.224 0 .6-.228 1.992-.684 4.176-.576 2.64-.864 4.428-.864 5.364 0 .72.096 1.272.288 1.656.192.384.516.576.972.576.432 0 .972-.3 1.62-.9.648-.6 1.512-1.548 2.592-2.844.288-.336.612-.504.972-.504.312 0 .552.144.72.432.192.288.288.684.288 1.188 0 .96-.228 1.704-.684 2.232-2.376 2.904-4.596 4.356-6.66 4.356Zm10.516 0c-1.416 0-2.628-.348-3.636-1.044a6.774 6.774 0 0 1-2.232-2.808 9.149 9.149 0 0 1-.756-3.708c0-1.824.336-3.444 1.008-4.86.696-1.44 1.632-2.556 2.808-3.348 1.176-.816 2.496-1.224 3.96-1.224 1.416 0 2.628.36 3.636 1.08a6.426 6.426 0 0 1 2.268 2.772 9.149 9.149 0 0 1 .756 3.708c0 1.824-.348 3.456-1.044 4.896-.696 1.416-1.644 2.532-2.844 3.348a6.87 6.87 0 0 1-3.924 1.188Zm.396-3.888c.816 0 1.5-.444 2.052-1.332.576-.888.864-2.184.864-3.888 0-1.32-.24-2.316-.72-2.988-.48-.672-1.056-1.008-1.728-1.008-.864 0-1.584.444-2.16 1.332-.552.864-.828 2.16-.828 3.888 0 1.368.24 2.376.72 3.024.48.648 1.08.972 1.8.972Zm47.224-4.32c.312 0 .552.144.72.432.192.288.288.684.288 1.188 0 .936-.228 1.68-.684 2.232-1.344 1.608-2.652 2.736-3.924 3.384-1.248.648-2.76.972-4.536.972-1.248 0-2.4-.156-3.456-.468-1.056-.312-2.34-.78-3.852-1.404a46.461 46.461 0 0 0-3.456-1.332c-1.104 1.2-2.1 2.04-2.988 2.52a6.065 6.065 0 0 1-2.808.684c-1.32 0-2.376-.3-3.168-.9-.792-.624-1.188-1.428-1.188-2.412 0-.744.24-1.428.72-2.052.504-.624 1.2-1.116 2.088-1.476.888-.36 1.92-.54 3.096-.54.672 0 1.176.012 1.512.036a151.03 151.03 0 0 0 12.744-18.54 36.597 36.597 0 0 0-6.3-.54c-2.76 0-4.788.324-6.084.972-1.272.624-1.908 1.62-1.908 2.988 0 .408.048.756.144 1.044.096.288.24.624.432 1.008.216.432.324.744.324.936 0 .48-.228.888-.684 1.224-.432.312-.936.468-1.512.468-.6 0-1.092-.18-1.476-.54-.456-.408-.828-.96-1.116-1.656-.264-.72-.396-1.524-.396-2.412 0-2.808 1.164-4.884 3.492-6.228 2.328-1.344 5.4-2.016 9.216-2.016 1.896 0 3.828.108 5.796.324 1.992.216 3.852.564 5.58 1.044.72.192 1.2.468 1.44.828.24.336.36.78.36 1.332 0 .648-.168 1.152-.504 1.512-.336.36-.804.54-1.404.54h-.252a288.21 288.21 0 0 1-7.884 12.168c-2.136 3.096-3.636 5.196-4.5 6.3 1.392.312 2.604.6 3.636.864 1.272.336 2.292.588 3.06.756.792.144 1.476.216 2.052.216 1.392 0 2.58-.228 3.564-.684 1.008-.48 1.956-1.236 2.844-2.268.288-.336.612-.504.972-.504Zm16.281 0c.312 0 .552.144.72.432.192.288.288.684.288 1.188 0 .96-.228 1.704-.684 2.232-.888 1.08-2.148 2.076-3.78 2.988a10.337 10.337 0 0 1-5.184 1.368c-2.52 0-4.476-.684-5.868-2.052-1.392-1.368-2.088-3.24-2.088-5.616 0-1.656.348-3.192 1.044-4.608.696-1.44 1.656-2.58 2.88-3.42 1.248-.84 2.652-1.26 4.212-1.26 1.392 0 2.508.42 3.348 1.26.84.816 1.26 1.932 1.26 3.348 0 1.656-.6 3.084-1.8 4.284-1.176 1.176-3.18 2.112-6.012 2.808.6 1.104 1.74 1.656 3.42 1.656 1.08 0 2.304-.372 3.672-1.116a12.35 12.35 0 0 0 3.6-2.988c.288-.336.612-.504.972-.504Zm-9.072-5.22c-.888 0-1.644.516-2.268 1.548-.6 1.032-.9 2.28-.9 3.744v.072c1.416-.336 2.532-.84 3.348-1.512.816-.672 1.224-1.452 1.224-2.34 0-.456-.132-.816-.396-1.08-.24-.288-.576-.432-1.008-.432Zm9.705 13.428c-.912 0-1.56-.48-1.944-1.44-.36-.96-.54-2.496-.54-4.608 0-3.12.444-6.084 1.332-8.892.216-.696.564-1.2 1.044-1.512.504-.336 1.2-.504 2.088-.504.48 0 .816.06 1.008.18.192.12.288.348.288.684 0 .384-.18 1.248-.54 2.592-.24.96-.432 1.8-.576 2.52-.144.72-.264 1.608-.36 2.664.792-2.064 1.68-3.744 2.664-5.04.984-1.296 1.944-2.22 2.88-2.772.96-.552 1.836-.828 2.628-.828 1.56 0 2.34.78 2.34 2.34 0 .312-.108 1.068-.324 2.268-.192.96-.288 1.56-.288 1.8 0 .84.3 1.26.9 1.26.672 0 1.536-.528 2.592-1.584.312-.312.636-.468.972-.468.312 0 .552.144.72.432.192.264.288.624.288 1.08 0 .888-.24 1.584-.72 2.088a9.992 9.992 0 0 1-2.376 1.8c-.888.48-1.836.72-2.844.72-1.272 0-2.244-.324-2.916-.972-.648-.648-.972-1.524-.972-2.628 0-.36.036-.72.108-1.08.048-.48.072-.804.072-.972 0-.384-.132-.576-.396-.576-.36 0-.84.408-1.44 1.224-.576.792-1.152 1.848-1.728 3.168a25.859 25.859 0 0 0-1.404 4.176c-.264 1.128-.576 1.896-.936 2.304-.336.384-.876.576-1.62.576Zm19.911 0c-1.416 0-2.628-.348-3.636-1.044a6.774 6.774 0 0 1-2.232-2.808 9.149 9.149 0 0 1-.756-3.708c0-1.824.336-3.444 1.008-4.86.696-1.44 1.632-2.556 2.808-3.348 1.176-.816 2.496-1.224 3.96-1.224 1.416 0 2.628.36 3.636 1.08a6.426 6.426 0 0 1 2.268 2.772 9.149 9.149 0 0 1 .756 3.708c0 1.824-.348 3.456-1.044 4.896-.696 1.416-1.644 2.532-2.844 3.348a6.87 6.87 0 0 1-3.924 1.188Zm.396-3.888c.816 0 1.5-.444 2.052-1.332.576-.888.864-2.184.864-3.888 0-1.32-.24-2.316-.72-2.988-.48-.672-1.056-1.008-1.728-1.008-.864 0-1.584.444-2.16 1.332-.552.864-.828 2.16-.828 3.888 0 1.368.24 2.376.72 3.024.48.648 1.08.972 1.8.972Z"/></svg>