<svg xmlns="http://www.w3.org/2000/svg" width="214" height="64" fill="none"><path fill="#000" d="M38.776 25.544c0 2.04-.528 3.912-1.584 5.616-1.056 1.704-2.592 3.096-4.608 4.176-2.016 1.08-4.416 1.716-7.2 1.908l-1.548 8.676c-.6 3.336-2.232 5.004-4.896 5.004-1.464 0-2.82-.432-4.068-1.296-1.224-.864-2.208-2.184-2.952-3.96-.744-1.776-1.116-3.96-1.116-6.552 0-4.872.78-9 2.34-12.384 1.584-3.408 3.696-5.952 6.336-7.632 2.664-1.704 5.592-2.556 8.784-2.556 2.256 0 4.164.396 5.724 1.188 1.584.792 2.772 1.872 3.564 3.24.816 1.344 1.224 2.868 1.224 4.572Zm-12.744 7.992c4.92-.624 7.38-3.18 7.38-7.668 0-1.584-.528-2.868-1.584-3.852-1.032-1.008-2.64-1.512-4.824-1.512-2.472 0-4.632.78-6.48 2.34-1.824 1.56-3.24 3.732-4.248 6.516-.984 2.76-1.476 5.916-1.476 9.468 0 1.488.144 2.808.432 3.96.312 1.152.696 2.052 1.152 2.7.48.624.936.936 1.368.936.6 0 1.056-.828 1.368-2.484l1.188-6.804c-.936-.144-1.344-.204-1.224-.18-.72-.12-1.188-.336-1.404-.648-.216-.336-.324-.756-.324-1.26 0-.528.144-.948.432-1.26.312-.312.732-.468 1.26-.468.24 0 .42.012.54.036.576.096 1.02.156 1.332.18.312-1.872.756-4.38 1.332-7.524.144-.816.468-1.392.972-1.728.528-.36 1.14-.54 1.836-.54.792 0 1.356.156 1.692.468.36.288.54.756.54 1.404 0 .384-.024.696-.072.936l-1.188 6.984ZM41.215 47.18c-1.489 0-2.677-.54-3.565-1.62-.887-1.08-1.331-2.496-1.331-4.248 0-1.92.444-3.732 1.331-5.436.889-1.728 2.065-3.108 3.529-4.14 1.487-1.056 3.06-1.584 4.715-1.584.529 0 .877.108 1.044.324.192.192.348.552.468 1.08a8.453 8.453 0 0 1 1.584-.144c1.176 0 1.764.42 1.764 1.26 0 .504-.18 1.704-.54 3.6-.551 2.76-.828 4.68-.828 5.76 0 .36.084.648.252.864a.923.923 0 0 0 .72.324c.457 0 1.009-.288 1.657-.864.648-.6 1.523-1.56 2.627-2.88.288-.336.612-.504.972-.504.313 0 .553.144.72.432.192.288.288.684.288 1.188 0 .96-.227 1.704-.684 2.232-.983 1.224-2.028 2.256-3.132 3.096-1.103.84-2.171 1.26-3.203 1.26-.793 0-1.525-.264-2.197-.792-.648-.552-1.14-1.296-1.475-2.232-1.248 2.016-2.82 3.024-4.716 3.024Zm1.295-3.636c.529 0 1.032-.312 1.513-.936.48-.624.827-1.452 1.043-2.484l1.332-6.624c-1.008.024-1.944.408-2.808 1.152-.84.72-1.512 1.68-2.016 2.88a9.754 9.754 0 0 0-.755 3.816c0 .744.143 1.296.431 1.656.313.36.733.54 1.26.54Zm30.41-4.572c.313 0 .553.144.72.432.193.288.289.684.289 1.188 0 .96-.228 1.704-.684 2.232-1.032 1.272-2.148 2.316-3.348 3.132-1.176.816-2.52 1.224-4.032 1.224-1.272 0-2.304-.456-3.096-1.368-1.368.888-2.796 1.344-4.284 1.368-.312 4.632-1.02 8.496-2.124 11.592-1.104 3.12-2.724 4.68-4.86 4.68-1.296 0-2.256-.468-2.88-1.404-.624-.936-.936-2.232-.936-3.888 0-2.352.54-5.1 1.62-8.244 1.08-3.12 2.748-6.564 5.004-10.332 0-3.504-.024-5.94-.072-7.308-.024-.696.252-1.248.828-1.656.576-.408 1.296-.612 2.16-.612.504 0 .864.108 1.08.324.24.192.372.588.396 1.188 0 .6.012 1.044.036 1.332.768-.96 1.524-1.644 2.268-2.052a4.656 4.656 0 0 1 2.376-.648c1.344 0 2.436.54 3.276 1.62.864 1.08 1.296 2.496 1.296 4.248 0 1.272-.204 2.508-.612 3.708a12.111 12.111 0 0 1-1.692 3.276c.504.144.924.216 1.26.216.792 0 1.548-.288 2.268-.864.72-.576 1.644-1.536 2.772-2.88.288-.336.612-.504.972-.504Zm-14.255 4.752c.864-.192 1.656-.66 2.376-1.404.744-.768 1.332-1.704 1.764-2.808a9.781 9.781 0 0 0 .648-3.528c0-.72-.144-1.26-.432-1.62a1.368 1.368 0 0 0-1.152-.576c-.864 0-1.908.912-3.132 2.736a221.585 221.585 0 0 0-.036 4.644c0 1.104-.012 1.956-.036 2.556Zm-6.876 16.2c.648 0 1.188-1.416 1.62-4.248.432-2.808.708-6.312.828-10.512-1.032 2.4-1.848 4.692-2.448 6.876-.6 2.184-.9 4.02-.9 5.508 0 .768.096 1.356.288 1.764.168.408.372.612.612.612ZM75.457 47.18c-1.488 0-2.676-.54-3.564-1.62-.888-1.08-1.332-2.496-1.332-4.248 0-1.92.444-3.732 1.332-5.436.888-1.728 2.064-3.108 3.528-4.14 1.488-1.056 3.06-1.584 4.716-1.584.528 0 .876.108 1.044.324.192.192.348.552.468 1.08a8.453 8.453 0 0 1 1.584-.144c1.176 0 1.764.42 1.764 1.26 0 .504-.18 1.704-.54 3.6-.552 2.76-.828 4.68-.828 5.76 0 .36.084.648.252.864a.923.923 0 0 0 .72.324c.456 0 1.008-.288 1.656-.864.648-.6 1.524-1.56 2.628-2.88.288-.336.612-.504.972-.504.312 0 .552.144.72.432.192.288.288.684.288 1.188 0 .96-.228 1.704-.684 2.232-.984 1.224-2.028 2.256-3.132 3.096-1.104.84-2.172 1.26-3.204 1.26-.792 0-1.524-.264-2.196-.792-.648-.552-1.14-1.296-1.476-2.232-1.248 2.016-2.82 3.024-4.716 3.024Zm1.296-3.636c.528 0 1.032-.312 1.512-.936.48-.624.828-1.452 1.044-2.484L80.64 33.5c-1.008.024-1.944.408-2.808 1.152-.84.72-1.512 1.68-2.016 2.88a9.754 9.754 0 0 0-.756 3.816c0 .744.144 1.296.432 1.656.312.36.732.54 1.26.54Zm31.994-4.572c.312 0 .552.144.72.432.192.288.288.684.288 1.188 0 .96-.228 1.704-.684 2.232-1.08 1.32-2.172 2.376-3.276 3.168-1.104.792-2.412 1.188-3.924 1.188-1.848 0-3.336-.528-4.464-1.584-1.128-1.056-1.692-2.46-1.692-4.212 0-.936.48-1.608 1.44-2.016 1.056-.456 1.812-.936 2.268-1.44.456-.528.684-1.164.684-1.908 0-.432-.096-.756-.288-.972a.785.785 0 0 0-.648-.324c-.648 0-1.368.468-2.16 1.404-.768.936-1.488 2.148-2.16 3.636a25.406 25.406 0 0 0-1.584 4.536c-.264 1.128-.576 1.896-.936 2.304-.336.384-.876.576-1.62.576-.744 0-1.296-.264-1.656-.792-.336-.552-.564-1.392-.684-2.52-.12-1.128-.18-2.784-.18-4.968 0-3.696.372-7.548 1.116-11.556.768-4.008 1.884-7.368 3.348-10.08 1.488-2.736 3.264-4.104 5.328-4.104 1.104 0 1.992.48 2.664 1.44.696.936 1.044 2.16 1.044 3.672 0 2.424-.708 4.944-2.124 7.56-1.416 2.592-3.72 5.628-6.912 9.108a66.9 66.9 0 0 0-.108 3.852c1.152-3 2.472-5.172 3.96-6.516 1.488-1.368 2.88-2.052 4.176-2.052 1.2 0 2.16.408 2.88 1.224.744.816 1.116 1.824 1.116 3.024a6.86 6.86 0 0 1-1.008 3.636c-.672 1.104-1.824 2.088-3.456 2.952.096.648.384 1.176.864 1.584.504.384 1.104.576 1.8.576.744 0 1.464-.288 2.16-.864.696-.576 1.608-1.536 2.736-2.88.288-.336.612-.504.972-.504Zm-11.52-22.248c-.432 0-.912.624-1.44 1.872-.528 1.224-1.044 2.892-1.548 5.004a69.423 69.423 0 0 0-1.188 6.84 25.268 25.268 0 0 0 3.672-5.724c.984-2.064 1.476-3.936 1.476-5.616 0-.768-.084-1.356-.252-1.764-.168-.408-.408-.612-.72-.612Zm14.342 11.124c-1.008 0-1.764-.228-2.268-.684-.504-.48-.756-1.14-.756-1.98 0-.84.324-1.536.972-2.088.672-.576 1.5-.864 2.484-.864.888 0 1.608.216 2.16.648.552.432.828 1.044.828 1.836 0 .96-.312 1.728-.936 2.304-.624.552-1.452.828-2.484.828Zm-.288 19.332c-1.56 0-2.7-.552-3.42-1.656-.696-1.104-1.044-2.568-1.044-4.392 0-1.08.132-2.46.396-4.14a40.883 40.883 0 0 1 1.08-4.752c.216-.768.504-1.296.864-1.584.36-.288.936-.432 1.728-.432 1.224 0 1.836.408 1.836 1.224 0 .6-.228 1.992-.684 4.176-.576 2.64-.864 4.428-.864 5.364 0 .72.096 1.272.288 1.656.192.384.516.576.972.576.432 0 .972-.3 1.62-.9.648-.6 1.512-1.548 2.592-2.844.288-.336.612-.504.972-.504.312 0 .552.144.72.432.192.288.288.684.288 1.188 0 .96-.228 1.704-.684 2.232-2.376 2.904-4.596 4.356-6.66 4.356Zm11.127.792c-1.248 0-2.208-.288-2.88-.864-.648-.576-.972-1.224-.972-1.944 0-.624.228-1.164.684-1.62.456-.456 1.128-.684 2.016-.684.312 0 .672.036 1.08.108l.972.108a4.44 4.44 0 0 0-.432-1.764 7.63 7.63 0 0 0-.936-1.584 19.577 19.577 0 0 0-1.08-1.368c-.744 1.416-1.488 2.592-2.232 3.528a24.817 24.817 0 0 1-2.376 2.664c-.432.432-.888.648-1.368.648-.384 0-.696-.132-.936-.396a1.577 1.577 0 0 1-.36-1.044c0-.48.168-.924.504-1.332l.468-.576c1.32-1.632 2.316-2.976 2.988-4.032.432-.696.864-1.524 1.296-2.484.456-.96 1.044-2.268 1.764-3.924.456-1.056 1.404-1.584 2.844-1.584.672 0 1.14.06 1.404.18s.396.312.396.576c0 .144-.048.372-.144.684a5.203 5.203 0 0 1-.396.936c-.432.864-.648 1.596-.648 2.196 0 .36.12.756.36 1.188.264.432.66.972 1.188 1.62.768 1.008 1.344 1.872 1.728 2.592.408.696.612 1.464.612 2.304a6.1 6.1 0 0 1-.72 2.88 5.613 5.613 0 0 1-1.944 2.16c-.84.552-1.8.828-2.88.828Zm26.36-.792c-1.392 0-2.964-.12-4.716-.36-.96-.12-1.62-.372-1.98-.756-.36-.384-.516-1.008-.468-1.872.168-2.376.564-5.304 1.188-8.784.624-3.504 1.38-6.876 2.268-10.116.168-.6.504-1.02 1.008-1.26s1.164-.36 1.98-.36c1.464 0 2.196.408 2.196 1.224 0 .336-.072.72-.216 1.152-.624 1.92-1.248 4.5-1.872 7.74a91.718 91.718 0 0 0-1.332 9.216c.72.072 1.536.108 2.448.108 4.2 0 7.332-1.272 9.396-3.816 2.088-2.544 3.132-5.94 3.132-10.188 0-2.856-.816-5.064-2.448-6.624-1.632-1.56-3.936-2.34-6.912-2.34-1.92 0-3.828.3-5.724.9-1.872.6-3.564 1.392-5.076 2.376a1.737 1.737 0 0 1-1.008.324c-.408 0-.732-.168-.972-.504-.24-.36-.36-.792-.36-1.296 0-.576.096-1.044.288-1.404.192-.384.516-.732.972-1.044 1.656-1.128 3.6-1.98 5.832-2.556 2.232-.6 4.38-.9 6.444-.9 2.928 0 5.46.516 7.596 1.548 2.136 1.008 3.78 2.496 4.932 4.464 1.152 1.968 1.728 4.344 1.728 7.128 0 3.624-.72 6.792-2.16 9.504-1.44 2.688-3.54 4.776-6.3 6.264-2.76 1.488-6.048 2.232-9.864 2.232Zm36.789-8.208c.312 0 .552.144.72.432.192.288.288.684.288 1.188 0 .96-.228 1.704-.684 2.232-.888 1.08-2.148 2.076-3.78 2.988a10.337 10.337 0 0 1-5.184 1.368c-2.52 0-4.476-.684-5.868-2.052-1.392-1.368-2.088-3.24-2.088-5.616 0-1.656.348-3.192 1.044-4.608.696-1.44 1.656-2.58 2.88-3.42 1.248-.84 2.652-1.26 4.212-1.26 1.392 0 2.508.42 3.348 1.26.84.816 1.26 1.932 1.26 3.348 0 1.656-.6 3.084-1.8 4.284-1.176 1.176-3.18 2.112-6.012 2.808.6 1.104 1.74 1.656 3.42 1.656 1.08 0 2.304-.372 3.672-1.116a12.35 12.35 0 0 0 3.6-2.988c.288-.336.612-.504.972-.504Zm-9.072-5.22c-.888 0-1.644.516-2.268 1.548-.6 1.032-.9 2.28-.9 3.744v.072c1.416-.336 2.532-.84 3.348-1.512.816-.672 1.224-1.452 1.224-2.34 0-.456-.132-.816-.396-1.08-.24-.288-.576-.432-1.008-.432Zm20.793 5.22c.312 0 .552.144.72.432.192.288.288.684.288 1.188 0 .96-.228 1.704-.684 2.232-1.032 1.272-2.16 2.316-3.384 3.132-1.2.816-2.568 1.224-4.104 1.224-2.112 0-3.684-.96-4.716-2.88-1.008-1.92-1.512-4.404-1.512-7.452 0-2.928.372-6.264 1.116-10.008.768-3.744 1.884-6.96 3.348-9.648 1.488-2.688 3.252-4.032 5.292-4.032 1.152 0 2.052.54 2.7 1.62.672 1.056 1.008 2.58 1.008 4.572 0 2.856-.792 6.168-2.376 9.936-1.584 3.768-3.732 7.5-6.444 11.196.168.984.444 1.692.828 2.124.384.408.888.612 1.512.612.984 0 1.848-.276 2.592-.828.744-.576 1.692-1.548 2.844-2.916.288-.336.612-.504.972-.504Zm-4.428-22.248c-.552 0-1.176.996-1.872 2.988-.696 1.992-1.308 4.464-1.836 7.416s-.816 5.784-.864 8.496c1.704-2.808 3.06-5.616 4.068-8.424 1.008-2.832 1.512-5.412 1.512-7.74 0-1.824-.336-2.736-1.008-2.736Zm7.494 11.124c-1.008 0-1.764-.228-2.268-.684-.504-.48-.756-1.14-.756-1.98 0-.84.324-1.536.972-2.088.672-.576 1.5-.864 2.484-.864.888 0 1.608.216 2.16.648.552.432.828 1.044.828 1.836 0 .96-.312 1.728-.936 2.304-.624.552-1.452.828-2.484.828Zm-3.456 19.332c-.768 0-1.296-.156-1.584-.468-.288-.312-.432-.804-.432-1.476 0-.192.024-.528.072-1.008.384-4.392 1.02-8.388 1.908-11.988.192-.744.504-1.26.936-1.548.456-.312 1.176-.468 2.16-.468 1.032 0 1.548.42 1.548 1.26 0 .12-.024.348-.072.684-1.08 5.136-1.728 9.444-1.944 12.924-.048.768-.276 1.308-.684 1.62-.408.312-1.044.468-1.908.468Z"/></svg>